<svg xmlns="http://www.w3.org/2000/svg" xmlns:xlink="http://www.w3.org/1999/xlink" width="100" zoomAndPan="magnify" viewBox="0 0 75 74.999997" height="100" preserveAspectRatio="xMidYMid meet" version="1.0"><defs><g/></defs><g fill="#545454" fill-opacity="1"><g transform="translate(4.530693, 57.762597)"><g><path d="M 3.921875 0 C 3.328125 0 2.769531 -0.0390625 2.25 -0.125 C 1.738281 -0.21875 1.328125 -0.398438 1.015625 -0.671875 C 0.703125 -0.941406 0.546875 -1.332031 0.546875 -1.84375 C 0.546875 -2.34375 0.613281 -2.765625 0.75 -3.109375 C 0.894531 -3.460938 1.09375 -3.8125 1.34375 -4.15625 C 1.601562 -4.5 1.890625 -4.882812 2.203125 -5.3125 C 2.515625 -5.75 2.832031 -6.289062 3.15625 -6.9375 C 3.476562 -7.59375 3.796875 -8.414062 4.109375 -9.40625 C 4.578125 -10.914062 4.972656 -12.21875 5.296875 -13.3125 C 5.617188 -14.414062 5.898438 -15.382812 6.140625 -16.21875 C 6.390625 -17.0625 6.613281 -17.835938 6.8125 -18.546875 C 7.007812 -19.253906 7.203125 -19.960938 7.390625 -20.671875 C 7.578125 -21.390625 7.785156 -22.171875 8.015625 -23.015625 C 8.253906 -23.859375 8.519531 -24.835938 8.8125 -25.953125 C 9.113281 -27.078125 9.484375 -28.394531 9.921875 -29.90625 C 10.203125 -30.945312 10.398438 -31.765625 10.515625 -32.359375 C 10.640625 -32.953125 10.707031 -33.441406 10.71875 -33.828125 C 10.738281 -34.222656 10.726562 -34.617188 10.6875 -35.015625 C 10.65625 -35.410156 10.625 -35.921875 10.59375 -36.546875 C 10.59375 -36.691406 10.597656 -36.890625 10.609375 -37.140625 C 10.628906 -37.398438 10.703125 -37.660156 10.828125 -37.921875 C 10.953125 -38.191406 11.164062 -38.421875 11.46875 -38.609375 C 11.78125 -38.804688 12.21875 -38.90625 12.78125 -38.90625 L 20.078125 -38.90625 C 20.617188 -38.90625 21.085938 -38.894531 21.484375 -38.875 C 21.890625 -38.851562 22.253906 -38.753906 22.578125 -38.578125 C 22.910156 -38.398438 23.222656 -38.078125 23.515625 -37.609375 C 23.816406 -37.140625 24.125 -36.460938 24.4375 -35.578125 C 24.75 -34.691406 25.101562 -33.53125 25.5 -32.09375 C 26.007812 -30.332031 26.441406 -28.78125 26.796875 -27.4375 C 27.160156 -26.09375 27.484375 -24.882812 27.765625 -23.8125 C 28.054688 -22.738281 28.335938 -21.703125 28.609375 -20.703125 C 28.878906 -19.703125 29.164062 -18.664062 29.46875 -17.59375 C 29.78125 -16.53125 30.128906 -15.335938 30.515625 -14.015625 C 30.898438 -12.703125 31.363281 -11.164062 31.90625 -9.40625 C 32.207031 -8.414062 32.519531 -7.59375 32.84375 -6.9375 C 33.175781 -6.289062 33.5 -5.75 33.8125 -5.3125 C 34.125 -4.882812 34.40625 -4.5 34.65625 -4.15625 C 34.914062 -3.8125 35.113281 -3.460938 35.25 -3.109375 C 35.394531 -2.765625 35.46875 -2.34375 35.46875 -1.84375 C 35.46875 -1.332031 35.3125 -0.941406 35 -0.671875 C 34.6875 -0.398438 34.273438 -0.21875 33.765625 -0.125 C 33.265625 -0.0390625 32.707031 0 32.09375 0 L 22.15625 0 C 21.738281 0 21.328125 -0.0546875 20.921875 -0.171875 C 20.515625 -0.285156 20.179688 -0.472656 19.921875 -0.734375 C 19.660156 -1.003906 19.53125 -1.363281 19.53125 -1.8125 C 19.53125 -2.40625 19.578125 -2.875 19.671875 -3.21875 C 19.773438 -3.570312 19.890625 -3.90625 20.015625 -4.21875 C 20.140625 -4.539062 20.25 -4.929688 20.34375 -5.390625 C 20.445312 -5.847656 20.5 -6.484375 20.5 -7.296875 C 20.5 -7.742188 20.472656 -8.21875 20.421875 -8.71875 L 13.515625 -8.71875 C 13.523438 -8.488281 13.546875 -8.253906 13.578125 -8.015625 C 13.617188 -7.785156 13.648438 -7.546875 13.671875 -7.296875 C 13.773438 -6.484375 13.90625 -5.847656 14.0625 -5.390625 C 14.21875 -4.929688 14.363281 -4.539062 14.5 -4.21875 C 14.632812 -3.90625 14.75 -3.570312 14.84375 -3.21875 C 14.945312 -2.875 15 -2.40625 15 -1.8125 C 15 -1.363281 14.863281 -1.003906 14.59375 -0.734375 C 14.332031 -0.472656 14 -0.285156 13.59375 -0.171875 C 13.195312 -0.0546875 12.789062 0 12.375 0 Z M 13.5625 -17.96875 L 18.375 -17.96875 C 18.132812 -18.789062 17.890625 -19.664062 17.640625 -20.59375 C 17.390625 -21.519531 17.109375 -22.507812 16.796875 -23.5625 C 16.617188 -24.164062 16.441406 -24.675781 16.265625 -25.09375 C 16.085938 -25.507812 15.898438 -25.703125 15.703125 -25.671875 C 15.515625 -25.648438 15.332031 -25.398438 15.15625 -24.921875 C 14.976562 -24.441406 14.796875 -23.851562 14.609375 -23.15625 C 14.429688 -22.46875 14.265625 -21.757812 14.109375 -21.03125 C 13.960938 -20.300781 13.84375 -19.65625 13.75 -19.09375 C 13.65625 -18.539062 13.59375 -18.164062 13.5625 -17.96875 Z M 13.5625 -17.96875 "/></g></g></g><g fill="#545454" fill-opacity="1"><g transform="translate(37.834954, 57.762597)"><g><path d="M 16.125 0.40625 C 13.582031 0.40625 11.390625 0.0703125 9.546875 -0.59375 C 7.703125 -1.257812 6.148438 -2.203125 4.890625 -3.421875 C 3.628906 -4.648438 2.617188 -6.085938 1.859375 -7.734375 C 1.109375 -9.390625 0.566406 -11.210938 0.234375 -13.203125 C -0.0976562 -15.191406 -0.265625 -17.273438 -0.265625 -19.453125 C -0.265625 -21.628906 -0.0976562 -23.710938 0.234375 -25.703125 C 0.566406 -27.691406 1.109375 -29.507812 1.859375 -31.15625 C 2.617188 -32.8125 3.628906 -34.25 4.890625 -35.46875 C 6.148438 -36.695312 7.703125 -37.644531 9.546875 -38.3125 C 11.390625 -38.976562 13.582031 -39.3125 16.125 -39.3125 C 18.644531 -39.3125 20.765625 -39.007812 22.484375 -38.40625 C 24.210938 -37.800781 25.585938 -37.003906 26.609375 -36.015625 C 27.640625 -35.023438 28.382812 -33.941406 28.84375 -32.765625 C 29.300781 -31.597656 29.53125 -30.445312 29.53125 -29.3125 C 29.53125 -28.320312 29.332031 -27.414062 28.9375 -26.59375 C 28.550781 -25.78125 28.039062 -25.070312 27.40625 -24.46875 C 26.78125 -23.875 26.082031 -23.414062 25.3125 -23.09375 C 24.539062 -22.769531 23.773438 -22.609375 23.015625 -22.609375 C 22.046875 -22.609375 21.203125 -22.929688 20.484375 -23.578125 C 19.773438 -24.234375 19.421875 -25.269531 19.421875 -26.6875 C 19.421875 -27.738281 19.332031 -28.585938 19.15625 -29.234375 C 18.988281 -29.878906 18.671875 -30.347656 18.203125 -30.640625 C 17.734375 -30.941406 17.039062 -31.09375 16.125 -31.09375 C 14.988281 -31.09375 14.046875 -30.789062 13.296875 -30.1875 C 12.554688 -29.582031 11.96875 -28.742188 11.53125 -27.671875 C 11.101562 -26.597656 10.789062 -25.359375 10.59375 -23.953125 C 10.40625 -22.554688 10.3125 -21.054688 10.3125 -19.453125 C 10.3125 -17.847656 10.40625 -16.34375 10.59375 -14.9375 C 10.789062 -13.53125 11.101562 -12.289062 11.53125 -11.21875 C 11.96875 -10.15625 12.554688 -9.320312 13.296875 -8.71875 C 14.046875 -8.113281 14.988281 -7.8125 16.125 -7.8125 C 17.039062 -7.8125 17.734375 -7.957031 18.203125 -8.25 C 18.671875 -8.550781 18.988281 -9.023438 19.15625 -9.671875 C 19.332031 -10.316406 19.421875 -11.164062 19.421875 -12.21875 C 19.421875 -13.65625 19.773438 -14.691406 20.484375 -15.328125 C 21.203125 -15.972656 22.046875 -16.296875 23.015625 -16.296875 C 23.773438 -16.296875 24.539062 -16.128906 25.3125 -15.796875 C 26.082031 -15.472656 26.78125 -15.015625 27.40625 -14.421875 C 28.039062 -13.828125 28.550781 -13.117188 28.9375 -12.296875 C 29.332031 -11.484375 29.53125 -10.582031 29.53125 -9.59375 C 29.53125 -8.457031 29.300781 -7.300781 28.84375 -6.125 C 28.382812 -4.957031 27.640625 -3.878906 26.609375 -2.890625 C 25.585938 -1.898438 24.210938 -1.101562 22.484375 -0.5 C 20.765625 0.101562 18.644531 0.40625 16.125 0.40625 Z M 16.125 0.40625 "/></g></g></g></svg>