<svg xmlns="http://www.w3.org/2000/svg" xmlns:xlink="http://www.w3.org/1999/xlink" width="100" zoomAndPan="magnify" viewBox="0 0 75 74.999997" height="100" preserveAspectRatio="xMidYMid meet" version="1.0"><defs><g/></defs><g fill="#ff914d" fill-opacity="1"><g transform="translate(2.871095, 42.749996)"><g><path d="M 1.59375 0 C 1.351562 0 1.128906 -0.015625 0.921875 -0.046875 C 0.710938 -0.0859375 0.539062 -0.160156 0.40625 -0.265625 C 0.28125 -0.378906 0.21875 -0.539062 0.21875 -0.75 C 0.21875 -0.957031 0.242188 -1.128906 0.296875 -1.265625 C 0.359375 -1.410156 0.441406 -1.550781 0.546875 -1.6875 C 0.648438 -1.832031 0.765625 -1.992188 0.890625 -2.171875 C 1.023438 -2.347656 1.15625 -2.566406 1.28125 -2.828125 C 1.414062 -3.085938 1.546875 -3.421875 1.671875 -3.828125 C 1.859375 -4.441406 2.019531 -4.972656 2.15625 -5.421875 C 2.289062 -5.867188 2.40625 -6.257812 2.5 -6.59375 C 2.601562 -6.9375 2.691406 -7.253906 2.765625 -7.546875 C 2.847656 -7.835938 2.925781 -8.128906 3 -8.421875 C 3.082031 -8.710938 3.171875 -9.03125 3.265625 -9.375 C 3.359375 -9.71875 3.460938 -10.113281 3.578125 -10.5625 C 3.703125 -11.019531 3.851562 -11.554688 4.03125 -12.171875 C 4.15625 -12.597656 4.238281 -12.929688 4.28125 -13.171875 C 4.332031 -13.421875 4.359375 -13.625 4.359375 -13.78125 C 4.367188 -13.9375 4.363281 -14.09375 4.34375 -14.25 C 4.332031 -14.414062 4.320312 -14.628906 4.3125 -14.890625 C 4.3125 -14.941406 4.3125 -15.019531 4.3125 -15.125 C 4.320312 -15.226562 4.351562 -15.332031 4.40625 -15.4375 C 4.457031 -15.550781 4.546875 -15.644531 4.671875 -15.71875 C 4.796875 -15.800781 4.972656 -15.84375 5.203125 -15.84375 L 8.171875 -15.84375 C 8.390625 -15.84375 8.582031 -15.835938 8.75 -15.828125 C 8.914062 -15.816406 9.0625 -15.773438 9.1875 -15.703125 C 9.320312 -15.628906 9.445312 -15.5 9.5625 -15.3125 C 9.6875 -15.125 9.8125 -14.847656 9.9375 -14.484375 C 10.070312 -14.128906 10.222656 -13.65625 10.390625 -13.0625 C 10.585938 -12.34375 10.757812 -11.707031 10.90625 -11.15625 C 11.050781 -10.613281 11.179688 -10.125 11.296875 -9.6875 C 11.421875 -9.257812 11.535156 -8.84375 11.640625 -8.4375 C 11.753906 -8.03125 11.875 -7.609375 12 -7.171875 C 12.125 -6.734375 12.265625 -6.242188 12.421875 -5.703125 C 12.578125 -5.171875 12.765625 -4.546875 12.984375 -3.828125 C 13.109375 -3.421875 13.238281 -3.085938 13.375 -2.828125 C 13.507812 -2.566406 13.640625 -2.347656 13.765625 -2.171875 C 13.890625 -1.992188 14.003906 -1.832031 14.109375 -1.6875 C 14.210938 -1.550781 14.289062 -1.410156 14.34375 -1.265625 C 14.40625 -1.128906 14.4375 -0.957031 14.4375 -0.75 C 14.4375 -0.539062 14.375 -0.378906 14.25 -0.265625 C 14.125 -0.160156 13.957031 -0.0859375 13.75 -0.046875 C 13.539062 -0.015625 13.3125 0 13.0625 0 L 9.015625 0 C 8.847656 0 8.679688 -0.0195312 8.515625 -0.0625 C 8.347656 -0.113281 8.210938 -0.191406 8.109375 -0.296875 C 8.003906 -0.410156 7.953125 -0.554688 7.953125 -0.734375 C 7.953125 -0.972656 7.972656 -1.164062 8.015625 -1.3125 C 8.054688 -1.457031 8.101562 -1.59375 8.15625 -1.71875 C 8.207031 -1.84375 8.25 -2 8.28125 -2.1875 C 8.320312 -2.375 8.34375 -2.632812 8.34375 -2.96875 C 8.34375 -3.15625 8.332031 -3.347656 8.3125 -3.546875 L 5.5 -3.546875 C 5.507812 -3.453125 5.519531 -3.359375 5.53125 -3.265625 C 5.550781 -3.171875 5.5625 -3.070312 5.5625 -2.96875 C 5.601562 -2.632812 5.65625 -2.375 5.71875 -2.1875 C 5.78125 -2 5.835938 -1.84375 5.890625 -1.71875 C 5.953125 -1.59375 6.003906 -1.457031 6.046875 -1.3125 C 6.085938 -1.164062 6.109375 -0.972656 6.109375 -0.734375 C 6.109375 -0.554688 6.050781 -0.410156 5.9375 -0.296875 C 5.832031 -0.191406 5.695312 -0.113281 5.53125 -0.0625 C 5.375 -0.0195312 5.207031 0 5.03125 0 Z M 5.515625 -7.3125 L 7.484375 -7.3125 C 7.390625 -7.65625 7.289062 -8.015625 7.1875 -8.390625 C 7.082031 -8.765625 6.96875 -9.164062 6.84375 -9.59375 C 6.769531 -9.84375 6.695312 -10.050781 6.625 -10.21875 C 6.550781 -10.382812 6.472656 -10.460938 6.390625 -10.453125 C 6.316406 -10.441406 6.242188 -10.335938 6.171875 -10.140625 C 6.097656 -9.953125 6.023438 -9.71875 5.953125 -9.4375 C 5.878906 -9.15625 5.8125 -8.863281 5.75 -8.5625 C 5.6875 -8.269531 5.632812 -8.007812 5.59375 -7.78125 C 5.5625 -7.550781 5.535156 -7.394531 5.515625 -7.3125 Z M 5.515625 -7.3125 "/></g></g></g><g fill="#ff914d" fill-opacity="1"><g transform="translate(16.864037, 42.749996)"><g><path d="M 0.109375 -10.015625 C 0.109375 -10.285156 0.171875 -10.488281 0.296875 -10.625 C 0.429688 -10.757812 0.59375 -10.851562 0.78125 -10.90625 C 0.96875 -10.957031 1.148438 -10.984375 1.328125 -10.984375 C 1.515625 -10.992188 1.664062 -11 1.78125 -11 L 6.078125 -11 C 6.328125 -11 6.617188 -10.972656 6.953125 -10.921875 C 7.296875 -10.867188 7.660156 -10.769531 8.046875 -10.625 C 8.429688 -10.488281 8.8125 -10.289062 9.1875 -10.03125 C 9.5625 -9.769531 9.898438 -9.4375 10.203125 -9.03125 C 10.503906 -8.632812 10.742188 -8.144531 10.921875 -7.5625 C 11.109375 -6.976562 11.203125 -6.289062 11.203125 -5.5 C 11.203125 -4.25 11.019531 -3.203125 10.65625 -2.359375 C 10.300781 -1.523438 9.800781 -0.894531 9.15625 -0.46875 C 8.519531 -0.0390625 7.796875 0.171875 6.984375 0.171875 C 6.640625 0.171875 6.328125 0.0976562 6.046875 -0.046875 C 5.765625 -0.191406 5.523438 -0.378906 5.328125 -0.609375 C 5.328125 -0.179688 5.375 0.203125 5.46875 0.546875 C 5.570312 0.890625 5.695312 1.203125 5.84375 1.484375 C 6 1.773438 6.148438 2.046875 6.296875 2.296875 C 6.441406 2.554688 6.5625 2.8125 6.65625 3.0625 C 6.757812 3.3125 6.8125 3.578125 6.8125 3.859375 C 6.8125 4.117188 6.75 4.316406 6.625 4.453125 C 6.5 4.585938 6.34375 4.679688 6.15625 4.734375 C 5.96875 4.796875 5.78125 4.828125 5.59375 4.828125 C 5.414062 4.835938 5.265625 4.84375 5.140625 4.84375 L 1.78125 4.84375 C 1.664062 4.84375 1.515625 4.835938 1.328125 4.828125 C 1.148438 4.828125 0.96875 4.796875 0.78125 4.734375 C 0.59375 4.679688 0.429688 4.585938 0.296875 4.453125 C 0.171875 4.316406 0.109375 4.117188 0.109375 3.859375 C 0.109375 3.429688 0.15625 2.976562 0.25 2.5 C 0.351562 2.03125 0.472656 1.523438 0.609375 0.984375 C 0.742188 0.441406 0.859375 -0.144531 0.953125 -0.78125 C 1.054688 -1.414062 1.109375 -2.109375 1.109375 -2.859375 C 1.109375 -3.671875 1.054688 -4.410156 0.953125 -5.078125 C 0.859375 -5.753906 0.742188 -6.378906 0.609375 -6.953125 C 0.472656 -7.523438 0.351562 -8.0625 0.25 -8.5625 C 0.15625 -9.0625 0.109375 -9.546875 0.109375 -10.015625 Z M 5.078125 -5.484375 C 5.078125 -4.660156 5.164062 -3.992188 5.34375 -3.484375 C 5.519531 -2.984375 5.753906 -2.734375 6.046875 -2.734375 C 6.335938 -2.734375 6.570312 -2.984375 6.75 -3.484375 C 6.9375 -3.992188 7.03125 -4.660156 7.03125 -5.484375 C 7.03125 -6.316406 6.9375 -6.984375 6.75 -7.484375 C 6.570312 -7.992188 6.335938 -8.25 6.046875 -8.25 C 5.753906 -8.25 5.519531 -7.992188 5.34375 -7.484375 C 5.164062 -6.984375 5.078125 -6.316406 5.078125 -5.484375 Z M 5.078125 -5.484375 "/></g></g></g><g fill="#ff914d" fill-opacity="1"><g transform="translate(28.339919, 42.749996)"><g><path d="M 0.28125 -5.5 C 0.28125 -6.195312 0.394531 -6.878906 0.625 -7.546875 C 0.863281 -8.222656 1.226562 -8.832031 1.71875 -9.375 C 2.207031 -9.925781 2.820312 -10.363281 3.5625 -10.6875 C 4.3125 -11.007812 5.195312 -11.171875 6.21875 -11.171875 C 6.78125 -11.171875 7.320312 -11.097656 7.84375 -10.953125 C 8.363281 -10.804688 8.828125 -10.585938 9.234375 -10.296875 C 9.640625 -10.003906 9.960938 -9.640625 10.203125 -9.203125 C 10.441406 -8.773438 10.5625 -8.273438 10.5625 -7.703125 C 10.5625 -7.066406 10.460938 -6.507812 10.265625 -6.03125 C 10.078125 -5.5625 9.816406 -5.164062 9.484375 -4.84375 C 9.160156 -4.519531 8.800781 -4.253906 8.40625 -4.046875 C 8.007812 -3.835938 7.609375 -3.671875 7.203125 -3.546875 C 6.828125 -3.429688 6.492188 -3.378906 6.203125 -3.390625 C 5.910156 -3.398438 5.679688 -3.40625 5.515625 -3.40625 C 5.421875 -3.40625 5.347656 -3.394531 5.296875 -3.375 C 5.242188 -3.351562 5.21875 -3.3125 5.21875 -3.25 C 5.21875 -3.125 5.28125 -3.023438 5.40625 -2.953125 C 5.539062 -2.878906 5.695312 -2.828125 5.875 -2.796875 C 6.0625 -2.765625 6.226562 -2.75 6.375 -2.75 C 6.769531 -2.75 7.101562 -2.796875 7.375 -2.890625 C 7.644531 -2.992188 7.878906 -3.109375 8.078125 -3.234375 C 8.285156 -3.359375 8.484375 -3.46875 8.671875 -3.5625 C 8.867188 -3.664062 9.082031 -3.71875 9.3125 -3.71875 C 9.5625 -3.71875 9.773438 -3.65625 9.953125 -3.53125 C 10.128906 -3.414062 10.273438 -3.265625 10.390625 -3.078125 C 10.503906 -2.890625 10.585938 -2.695312 10.640625 -2.5 C 10.691406 -2.300781 10.71875 -2.117188 10.71875 -1.953125 C 10.71875 -1.628906 10.554688 -1.300781 10.234375 -0.96875 C 9.921875 -0.644531 9.429688 -0.375 8.765625 -0.15625 C 8.109375 0.0625 7.257812 0.171875 6.21875 0.171875 C 5.25 0.171875 4.394531 0.0078125 3.65625 -0.3125 C 2.914062 -0.632812 2.296875 -1.066406 1.796875 -1.609375 C 1.296875 -2.148438 0.914062 -2.753906 0.65625 -3.421875 C 0.40625 -4.097656 0.28125 -4.789062 0.28125 -5.5 Z M 4.515625 -6.671875 C 4.335938 -6.203125 4.273438 -5.820312 4.328125 -5.53125 C 4.378906 -5.238281 4.539062 -5.09375 4.8125 -5.09375 C 5.082031 -5.09375 5.359375 -5.238281 5.640625 -5.53125 C 5.929688 -5.820312 6.164062 -6.203125 6.34375 -6.671875 C 6.539062 -7.140625 6.609375 -7.519531 6.546875 -7.8125 C 6.492188 -8.101562 6.328125 -8.25 6.046875 -8.25 C 5.773438 -8.25 5.5 -8.101562 5.21875 -7.8125 C 4.945312 -7.519531 4.710938 -7.140625 4.515625 -6.671875 Z M 4.515625 -6.671875 "/></g></g></g><g fill="#ff914d" fill-opacity="1"><g transform="translate(39.112299, 42.749996)"><g><path d="M 0.953125 0 C 0.835938 0 0.710938 -0.0078125 0.578125 -0.03125 C 0.453125 -0.0507812 0.34375 -0.101562 0.25 -0.1875 C 0.15625 -0.269531 0.109375 -0.394531 0.109375 -0.5625 C 0.109375 -0.769531 0.160156 -0.945312 0.265625 -1.09375 C 0.367188 -1.238281 0.507812 -1.378906 0.6875 -1.515625 C 0.875 -1.660156 1.070312 -1.828125 1.28125 -2.015625 C 1.5 -2.210938 1.710938 -2.457031 1.921875 -2.75 C 2.023438 -2.882812 2.1875 -3.082031 2.40625 -3.34375 C 2.632812 -3.601562 2.890625 -3.898438 3.171875 -4.234375 C 3.453125 -4.566406 3.710938 -4.925781 3.953125 -5.3125 C 3.679688 -5.75 3.410156 -6.160156 3.140625 -6.546875 C 2.867188 -6.941406 2.628906 -7.285156 2.421875 -7.578125 C 2.222656 -7.878906 2.066406 -8.101562 1.953125 -8.25 C 1.753906 -8.539062 1.546875 -8.78125 1.328125 -8.96875 C 1.109375 -9.164062 0.910156 -9.332031 0.734375 -9.46875 C 0.554688 -9.613281 0.410156 -9.757812 0.296875 -9.90625 C 0.179688 -10.050781 0.125 -10.226562 0.125 -10.4375 C 0.125 -10.601562 0.171875 -10.726562 0.265625 -10.8125 C 0.367188 -10.894531 0.484375 -10.945312 0.609375 -10.96875 C 0.734375 -10.988281 0.851562 -11 0.96875 -11 L 5.703125 -11 C 6.023438 -11 6.222656 -10.960938 6.296875 -10.890625 C 6.367188 -10.816406 6.40625 -10.671875 6.40625 -10.453125 C 6.40625 -10.285156 6.398438 -10.164062 6.390625 -10.09375 C 6.378906 -10.019531 6.367188 -9.929688 6.359375 -9.828125 C 6.347656 -9.734375 6.34375 -9.570312 6.34375 -9.34375 C 6.34375 -9.226562 6.367188 -9.078125 6.421875 -8.890625 C 6.484375 -8.703125 6.566406 -8.492188 6.671875 -8.265625 C 6.910156 -8.578125 7.101562 -8.851562 7.25 -9.09375 C 7.394531 -9.34375 7.46875 -9.535156 7.46875 -9.671875 C 7.46875 -9.796875 7.445312 -9.898438 7.40625 -9.984375 C 7.375 -10.066406 7.335938 -10.15625 7.296875 -10.25 C 7.253906 -10.34375 7.234375 -10.445312 7.234375 -10.5625 C 7.234375 -10.738281 7.289062 -10.851562 7.40625 -10.90625 C 7.53125 -10.96875 7.691406 -11 7.890625 -11 C 8.085938 -11 8.289062 -11 8.5 -11 L 10.984375 -11 C 11.097656 -11 11.21875 -10.988281 11.34375 -10.96875 C 11.476562 -10.945312 11.59375 -10.894531 11.6875 -10.8125 C 11.78125 -10.726562 11.828125 -10.601562 11.828125 -10.4375 C 11.828125 -10.226562 11.769531 -10.050781 11.65625 -9.90625 C 11.550781 -9.757812 11.410156 -9.613281 11.234375 -9.46875 C 11.054688 -9.332031 10.859375 -9.164062 10.640625 -8.96875 C 10.429688 -8.78125 10.222656 -8.539062 10.015625 -8.25 C 9.910156 -8.113281 9.769531 -7.90625 9.59375 -7.625 C 9.414062 -7.34375 9.210938 -7.019531 8.984375 -6.65625 C 8.753906 -6.289062 8.507812 -5.90625 8.25 -5.5 L 8.1875 -5.5 C 8.414062 -5.113281 8.644531 -4.738281 8.875 -4.375 C 9.101562 -4.019531 9.3125 -3.703125 9.5 -3.421875 C 9.6875 -3.140625 9.835938 -2.914062 9.953125 -2.75 C 10.171875 -2.457031 10.382812 -2.210938 10.59375 -2.015625 C 10.800781 -1.828125 10.992188 -1.660156 11.171875 -1.515625 C 11.359375 -1.378906 11.503906 -1.238281 11.609375 -1.09375 C 11.722656 -0.945312 11.78125 -0.769531 11.78125 -0.5625 C 11.78125 -0.394531 11.734375 -0.269531 11.640625 -0.1875 C 11.546875 -0.101562 11.429688 -0.0507812 11.296875 -0.03125 C 11.171875 -0.0078125 11.050781 0 10.9375 0 L 6.984375 0 C 6.773438 0 6.570312 0 6.375 0 C 6.1875 0 6.03125 -0.03125 5.90625 -0.09375 C 5.789062 -0.15625 5.734375 -0.269531 5.734375 -0.4375 C 5.734375 -0.5625 5.753906 -0.664062 5.796875 -0.75 C 5.835938 -0.832031 5.875 -0.921875 5.90625 -1.015625 C 5.945312 -1.109375 5.96875 -1.210938 5.96875 -1.328125 C 5.96875 -1.472656 5.925781 -1.65625 5.84375 -1.875 C 5.769531 -2.09375 5.671875 -2.332031 5.546875 -2.59375 C 5.335938 -2.3125 5.171875 -2.0625 5.046875 -1.84375 C 4.921875 -1.625 4.859375 -1.453125 4.859375 -1.328125 C 4.859375 -1.210938 4.878906 -1.109375 4.921875 -1.015625 C 4.960938 -0.921875 5 -0.832031 5.03125 -0.75 C 5.070312 -0.664062 5.09375 -0.5625 5.09375 -0.4375 C 5.09375 -0.269531 5.03125 -0.15625 4.90625 -0.09375 C 4.789062 -0.03125 4.632812 0 4.4375 0 C 4.238281 0 4.035156 0 3.828125 0 Z M 0.953125 0 "/></g></g></g><g fill="#ff914d" fill-opacity="1"><g transform="translate(49.389608, 42.749996)"><g><path d="M 0.28125 -5.5 C 0.28125 -6.195312 0.394531 -6.878906 0.625 -7.546875 C 0.863281 -8.222656 1.226562 -8.832031 1.71875 -9.375 C 2.207031 -9.925781 2.820312 -10.363281 3.5625 -10.6875 C 4.3125 -11.007812 5.195312 -11.171875 6.21875 -11.171875 C 6.78125 -11.171875 7.320312 -11.097656 7.84375 -10.953125 C 8.363281 -10.804688 8.828125 -10.585938 9.234375 -10.296875 C 9.640625 -10.003906 9.960938 -9.640625 10.203125 -9.203125 C 10.441406 -8.773438 10.5625 -8.273438 10.5625 -7.703125 C 10.5625 -7.066406 10.460938 -6.507812 10.265625 -6.03125 C 10.078125 -5.5625 9.816406 -5.164062 9.484375 -4.84375 C 9.160156 -4.519531 8.800781 -4.253906 8.40625 -4.046875 C 8.007812 -3.835938 7.609375 -3.671875 7.203125 -3.546875 C 6.828125 -3.429688 6.492188 -3.378906 6.203125 -3.390625 C 5.910156 -3.398438 5.679688 -3.40625 5.515625 -3.40625 C 5.421875 -3.40625 5.347656 -3.394531 5.296875 -3.375 C 5.242188 -3.351562 5.21875 -3.3125 5.21875 -3.25 C 5.21875 -3.125 5.28125 -3.023438 5.40625 -2.953125 C 5.539062 -2.878906 5.695312 -2.828125 5.875 -2.796875 C 6.0625 -2.765625 6.226562 -2.75 6.375 -2.75 C 6.769531 -2.75 7.101562 -2.796875 7.375 -2.890625 C 7.644531 -2.992188 7.878906 -3.109375 8.078125 -3.234375 C 8.285156 -3.359375 8.484375 -3.46875 8.671875 -3.5625 C 8.867188 -3.664062 9.082031 -3.71875 9.3125 -3.71875 C 9.5625 -3.71875 9.773438 -3.65625 9.953125 -3.53125 C 10.128906 -3.414062 10.273438 -3.265625 10.390625 -3.078125 C 10.503906 -2.890625 10.585938 -2.695312 10.640625 -2.5 C 10.691406 -2.300781 10.71875 -2.117188 10.71875 -1.953125 C 10.71875 -1.628906 10.554688 -1.300781 10.234375 -0.96875 C 9.921875 -0.644531 9.429688 -0.375 8.765625 -0.15625 C 8.109375 0.0625 7.257812 0.171875 6.21875 0.171875 C 5.25 0.171875 4.394531 0.0078125 3.65625 -0.3125 C 2.914062 -0.632812 2.296875 -1.066406 1.796875 -1.609375 C 1.296875 -2.148438 0.914062 -2.753906 0.65625 -3.421875 C 0.40625 -4.097656 0.28125 -4.789062 0.28125 -5.5 Z M 4.515625 -6.671875 C 4.335938 -6.203125 4.273438 -5.820312 4.328125 -5.53125 C 4.378906 -5.238281 4.539062 -5.09375 4.8125 -5.09375 C 5.082031 -5.09375 5.359375 -5.238281 5.640625 -5.53125 C 5.929688 -5.820312 6.164062 -6.203125 6.34375 -6.671875 C 6.539062 -7.140625 6.609375 -7.519531 6.546875 -7.8125 C 6.492188 -8.101562 6.328125 -8.25 6.046875 -8.25 C 5.773438 -8.25 5.5 -8.101562 5.21875 -7.8125 C 4.945312 -7.519531 4.710938 -7.140625 4.515625 -6.671875 Z M 4.515625 -6.671875 "/></g></g></g><g fill="#ff914d" fill-opacity="1"><g transform="translate(60.381886, 42.749996)"><g><path d="M 0.109375 -0.984375 C 0.109375 -1.273438 0.128906 -1.519531 0.171875 -1.71875 C 0.222656 -1.925781 0.285156 -2.132812 0.359375 -2.34375 C 0.441406 -2.550781 0.523438 -2.789062 0.609375 -3.0625 C 0.691406 -3.34375 0.769531 -3.695312 0.84375 -4.125 C 0.925781 -4.550781 0.988281 -5.085938 1.03125 -5.734375 C 1.082031 -6.378906 1.109375 -7.179688 1.109375 -8.140625 C 1.109375 -8.898438 1.082031 -9.554688 1.03125 -10.109375 C 0.988281 -10.660156 0.925781 -11.132812 0.84375 -11.53125 C 0.769531 -11.9375 0.691406 -12.285156 0.609375 -12.578125 C 0.523438 -12.867188 0.441406 -13.132812 0.359375 -13.375 C 0.285156 -13.613281 0.222656 -13.847656 0.171875 -14.078125 C 0.128906 -14.316406 0.109375 -14.578125 0.109375 -14.859375 C 0.109375 -15.117188 0.171875 -15.316406 0.296875 -15.453125 C 0.429688 -15.585938 0.59375 -15.679688 0.78125 -15.734375 C 0.96875 -15.796875 1.148438 -15.828125 1.328125 -15.828125 C 1.515625 -15.835938 1.664062 -15.84375 1.78125 -15.84375 L 4.625 -15.84375 C 4.738281 -15.84375 4.882812 -15.835938 5.0625 -15.828125 C 5.25 -15.828125 5.4375 -15.796875 5.625 -15.734375 C 5.8125 -15.679688 5.96875 -15.585938 6.09375 -15.453125 C 6.226562 -15.316406 6.296875 -15.117188 6.296875 -14.859375 C 6.296875 -14.578125 6.269531 -14.316406 6.21875 -14.078125 C 6.175781 -13.847656 6.113281 -13.613281 6.03125 -13.375 C 5.957031 -13.132812 5.878906 -12.867188 5.796875 -12.578125 C 5.710938 -12.285156 5.628906 -11.9375 5.546875 -11.53125 C 5.472656 -11.132812 5.410156 -10.660156 5.359375 -10.109375 C 5.316406 -9.554688 5.296875 -8.898438 5.296875 -8.140625 C 5.296875 -7.179688 5.316406 -6.378906 5.359375 -5.734375 C 5.410156 -5.085938 5.472656 -4.550781 5.546875 -4.125 C 5.628906 -3.695312 5.710938 -3.34375 5.796875 -3.0625 C 5.878906 -2.789062 5.957031 -2.550781 6.03125 -2.34375 C 6.113281 -2.132812 6.175781 -1.925781 6.21875 -1.71875 C 6.269531 -1.519531 6.296875 -1.273438 6.296875 -0.984375 C 6.296875 -0.710938 6.226562 -0.507812 6.09375 -0.375 C 5.96875 -0.238281 5.8125 -0.144531 5.625 -0.09375 C 5.4375 -0.0390625 5.25 -0.0078125 5.0625 0 C 4.882812 0 4.738281 0 4.625 0 L 1.78125 0 C 1.664062 0 1.515625 0 1.328125 0 C 1.148438 -0.0078125 0.96875 -0.0390625 0.78125 -0.09375 C 0.59375 -0.144531 0.429688 -0.238281 0.296875 -0.375 C 0.171875 -0.507812 0.109375 -0.710938 0.109375 -0.984375 Z M 0.109375 -0.984375 "/></g></g></g><g fill="#ff914d" fill-opacity="1"><g transform="translate(66.779362, 42.749996)"><g><path d="M 0.546875 -1.953125 C 0.546875 -2.347656 0.640625 -2.703125 0.828125 -3.015625 C 1.023438 -3.335938 1.28125 -3.59375 1.59375 -3.78125 C 1.914062 -3.96875 2.269531 -4.0625 2.65625 -4.0625 C 3.050781 -4.0625 3.410156 -3.96875 3.734375 -3.78125 C 4.054688 -3.59375 4.3125 -3.335938 4.5 -3.015625 C 4.6875 -2.703125 4.78125 -2.347656 4.78125 -1.953125 C 4.78125 -1.554688 4.6875 -1.195312 4.5 -0.875 C 4.3125 -0.5625 4.054688 -0.304688 3.734375 -0.109375 C 3.410156 0.078125 3.050781 0.171875 2.65625 0.171875 C 2.269531 0.171875 1.914062 0.078125 1.59375 -0.109375 C 1.28125 -0.304688 1.023438 -0.5625 0.828125 -0.875 C 0.640625 -1.195312 0.546875 -1.554688 0.546875 -1.953125 Z M 0.546875 -1.953125 "/></g></g></g></svg>