<svg xmlns="http://www.w3.org/2000/svg" xmlns:xlink="http://www.w3.org/1999/xlink" width="100" zoomAndPan="magnify" viewBox="0 0 75 74.999997" height="100" preserveAspectRatio="xMidYMid meet" version="1.0"><defs><g/></defs><g fill="#ff914d" fill-opacity="1"><g transform="translate(1.453126, 52.85167)"><g><path d="M 28.90625 0.09375 L 27.875 0 L 26.75 -0.484375 L 25.765625 -1.21875 L 25.46875 -2.109375 L 25.03125 -3.03125 L 24.09375 -3.828125 L 23.015625 -4.359375 L 21.9375 -4.21875 L 21.0625 -4.3125 L 16.265625 -4.265625 L 15.375 -4.40625 L 13.328125 -4.21875 L 12.390625 -4.359375 L 11.359375 -3.828125 L 10.4375 -2.890625 L 9.546875 -1.28125 L 8.625 -0.390625 L 7.5 -0.046875 L 4.75 0.046875 L 3.765625 -0.046875 L 1.859375 0.046875 L 0.875 -0.25 L 0.640625 -1.46875 L 0.9375 -2.453125 L 1.90625 -4.40625 L 2.15625 -5.296875 L 2.6875 -5.96875 L 3.421875 -7.9375 L 4.3125 -9.5 L 4.65625 -10.484375 L 5.140625 -11.21875 L 5.4375 -12.296875 L 10.4375 -22.78125 L 10.734375 -23.65625 L 11.265625 -24.59375 L 11.515625 -25.5625 L 12.046875 -26.296875 L 14.015625 -30.8125 L 14.453125 -31.5 L 14.796875 -32.484375 L 15.234375 -33.3125 L 16.109375 -34.140625 L 17.6875 -34.6875 L 19.296875 -34.1875 L 20.125 -33.3125 L 21.0625 -31.59375 L 21.359375 -30.71875 L 21.890625 -29.828125 L 22.1875 -28.859375 L 25.421875 -22.046875 L 25.765625 -21.015625 L 26.796875 -19.203125 L 27.09375 -18.421875 L 27.53125 -17.6875 L 27.828125 -16.609375 L 28.3125 -15.671875 L 28.796875 -14.9375 L 30.671875 -10.484375 L 31.640625 -8.71875 L 32.328125 -6.90625 L 33.65625 -4.359375 L 34.390625 -2.546875 L 34.734375 -1.421875 L 34.578125 -0.25 L 33.21875 0 L 31.6875 0.046875 L 30.765625 -0.046875 Z M 17.78125 -12.09375 L 19.734375 -12.140625 L 20.46875 -12.546875 L 20.671875 -13.421875 L 18.375 -18.8125 L 17.6875 -19.203125 L 17.140625 -18.765625 L 14.84375 -13.46875 L 14.890625 -12.546875 L 15.671875 -12.203125 L 16.796875 -12.296875 Z M 17.78125 -12.09375 "/></g></g></g><g fill="#ff914d" fill-opacity="1"><g transform="translate(36.174578, 52.85167)"><g><path d="M 17.046875 0.390625 L 16.109375 0.34375 L 15.234375 0.140625 L 14.25 -0.203125 L 13.375 -0.390625 L 11.171875 -1.328125 L 9.0625 -2.453125 L 6.859375 -4.359375 L 4.84375 -6.515625 L 2.75 -10.78125 L 2.0625 -13.5625 L 1.765625 -17.140625 L 2.25 -21.359375 L 2.75 -23.359375 L 3.96875 -26.109375 L 4.890625 -27.53125 L 6.21875 -29.1875 L 8.328125 -31.109375 L 9.75 -32.1875 L 13.375 -33.890625 L 18.125 -34.828125 L 21.15625 -34.78125 L 22.140625 -34.625 L 23.078125 -34.578125 L 27.78125 -33.015625 L 31.109375 -30.90625 L 32.484375 -29.484375 L 33.015625 -28.5625 L 33.703125 -27.71875 L 34.140625 -26.9375 L 34.6875 -26.15625 L 34.96875 -25.125 L 35.3125 -24.25 L 35.609375 -23.171875 L 35.265625 -22.1875 L 34.4375 -21.796875 L 32.96875 -21.65625 L 31.59375 -21.796875 L 30.609375 -21.75 L 29.59375 -21.796875 L 28.703125 -21.703125 L 27.578125 -22.234375 L 26.640625 -23.171875 L 26.109375 -23.90625 L 24.6875 -25.328125 L 24 -25.859375 L 23.125 -26.203125 L 21.609375 -26.640625 L 19.5 -26.75 L 16.21875 -26.296875 L 14.890625 -25.5625 L 13.71875 -24.640625 L 12.546875 -23.265625 L 12.046875 -22.34375 L 11.3125 -20.578125 L 10.96875 -18.609375 L 10.96875 -15.625 L 11.125 -14.546875 L 11.359375 -13.671875 L 11.703125 -12.984375 L 12.046875 -12 L 13.125 -10.28125 L 14.546875 -9.015625 L 16.265625 -8.125 L 18.03125 -7.5 L 19.453125 -7.34375 L 22.046875 -7.5 L 23.75 -8.421875 L 24.484375 -8.71875 L 25.28125 -9.40625 L 26.40625 -10.671875 L 26.890625 -11.609375 L 27.671875 -12.390625 L 28.796875 -12.984375 L 29.78125 -12.9375 L 30.765625 -12.984375 L 31.734375 -12.828125 L 34.484375 -13.03125 L 35.46875 -12.390625 L 35.765625 -11.515625 L 34.484375 -7.78125 L 33.453125 -6.03125 L 32.328125 -4.5625 L 30.953125 -3.1875 L 28.5625 -1.46875 L 27.71875 -1.078125 L 26.703125 -0.734375 L 25.8125 -0.25 L 22.921875 0.34375 L 19.5 0.59375 Z M 17.046875 0.390625 "/></g></g></g></svg>